<mxfile host="app.diagrams.net" agent="Mozilla/5.0 (Windows NT 10.0; Win64; x64) AppleWebKit/537.36 (KHTML, like Gecko) Chrome/129.0.0.0 Safari/537.36" version="24.7.17">
  <diagram name="1 oldal" id="8_ZoQVMhJrcuSsGxvHBY">
    <mxGraphModel dx="712" dy="829" grid="1" gridSize="10" guides="1" tooltips="1" connect="1" arrows="1" fold="1" page="1" pageScale="1" pageWidth="827" pageHeight="1169" math="0" shadow="0">
      <root>
        <mxCell id="0" />
        <mxCell id="1" parent="0" />
        <mxCell id="fOuyArTs9ZE_MJs5jXVL-1" value="Termék" style="rounded=0;whiteSpace=wrap;html=1;fillColor=#f9f7ed;strokeColor=#CBCF9C;" parent="1" vertex="1">
          <mxGeometry x="29.54" y="460" width="150" height="80" as="geometry" />
        </mxCell>
        <mxCell id="fOuyArTs9ZE_MJs5jXVL-4" value="Gyártó" style="rounded=0;whiteSpace=wrap;html=1;fillColor=#ffcc99;strokeColor=#36393d;" parent="1" vertex="1">
          <mxGeometry x="629.54" y="460" width="150" height="80" as="geometry" />
        </mxCell>
        <mxCell id="fOuyArTs9ZE_MJs5jXVL-6" value="" style="endArrow=classic;html=1;rounded=0;exitX=1;exitY=0.5;exitDx=0;exitDy=0;entryX=0;entryY=0.5;entryDx=0;entryDy=0;" parent="1" source="fOuyArTs9ZE_MJs5jXVL-12" target="fOuyArTs9ZE_MJs5jXVL-4" edge="1">
          <mxGeometry width="50" height="50" relative="1" as="geometry">
            <mxPoint x="379.54" y="499.5" as="sourcePoint" />
            <mxPoint x="609.54" y="500" as="targetPoint" />
            <Array as="points">
              <mxPoint x="489.54" y="499.5" />
            </Array>
          </mxGeometry>
        </mxCell>
        <mxCell id="fOuyArTs9ZE_MJs5jXVL-12" value="" style="rhombus;whiteSpace=wrap;html=1;fillColor=#ffff88;strokeColor=#36393d;" parent="1" vertex="1">
          <mxGeometry x="353.54" y="460" width="80" height="80" as="geometry" />
        </mxCell>
        <mxCell id="fOuyArTs9ZE_MJs5jXVL-13" value="" style="endArrow=classic;html=1;rounded=0;exitX=1;exitY=0.5;exitDx=0;exitDy=0;" parent="1" edge="1">
          <mxGeometry width="50" height="50" relative="1" as="geometry">
            <mxPoint x="297.54" y="500" as="sourcePoint" />
            <mxPoint x="189.54" y="500" as="targetPoint" />
            <Array as="points">
              <mxPoint x="353.54" y="499.5" />
            </Array>
          </mxGeometry>
        </mxCell>
        <mxCell id="fOuyArTs9ZE_MJs5jXVL-14" value="" style="endArrow=classic;html=1;rounded=0;entryX=1;entryY=0.5;entryDx=0;entryDy=0;exitX=0;exitY=0.5;exitDx=0;exitDy=0;" parent="1" edge="1">
          <mxGeometry width="50" height="50" relative="1" as="geometry">
            <mxPoint x="353.54" y="499.5" as="sourcePoint" />
            <mxPoint x="179.54" y="499.5" as="targetPoint" />
          </mxGeometry>
        </mxCell>
        <mxCell id="fOuyArTs9ZE_MJs5jXVL-16" value="név" style="ellipse;whiteSpace=wrap;html=1;fillColor=#ffcccc;strokeColor=#36393d;" parent="1" vertex="1">
          <mxGeometry x="-0.46000000000000085" y="610" width="70" height="30" as="geometry" />
        </mxCell>
        <mxCell id="fOuyArTs9ZE_MJs5jXVL-19" value="ear" style="ellipse;whiteSpace=wrap;html=1;fillColor=#ffcccc;strokeColor=#36393d;" parent="1" vertex="1">
          <mxGeometry x="80" y="607" width="70" height="36" as="geometry" />
        </mxCell>
        <mxCell id="fOuyArTs9ZE_MJs5jXVL-22" value="telephely" style="ellipse;whiteSpace=wrap;html=1;fillColor=#ffcccc;strokeColor=#36393d;" parent="1" vertex="1">
          <mxGeometry x="599.54" y="609" width="90" height="40" as="geometry" />
        </mxCell>
        <mxCell id="fOuyArTs9ZE_MJs5jXVL-23" value="név" style="ellipse;whiteSpace=wrap;html=1;fillColor=#ffcccc;strokeColor=#36393d;" parent="1" vertex="1">
          <mxGeometry x="699.54" y="609" width="90" height="40" as="geometry" />
        </mxCell>
        <mxCell id="fOuyArTs9ZE_MJs5jXVL-24" value="&lt;u&gt;adószám&lt;/u&gt;" style="ellipse;whiteSpace=wrap;html=1;fillColor=#ffcccc;strokeColor=#36393d;" parent="1" vertex="1">
          <mxGeometry x="489.54" y="609" width="100" height="50" as="geometry" />
        </mxCell>
        <mxCell id="fOuyArTs9ZE_MJs5jXVL-26" value="&lt;u&gt;tkód&lt;/u&gt;" style="ellipse;whiteSpace=wrap;html=1;fillColor=#ffcccc;strokeColor=#36393d;" parent="1" vertex="1">
          <mxGeometry x="159.54" y="607" width="70" height="39" as="geometry" />
        </mxCell>
        <mxCell id="fOuyArTs9ZE_MJs5jXVL-29" value="" style="endArrow=none;html=1;rounded=0;exitX=0.5;exitY=0;exitDx=0;exitDy=0;entryX=0.5;entryY=1;entryDx=0;entryDy=0;" parent="1" source="fOuyArTs9ZE_MJs5jXVL-16" target="fOuyArTs9ZE_MJs5jXVL-1" edge="1">
          <mxGeometry width="50" height="50" relative="1" as="geometry">
            <mxPoint x="20.000000000000036" y="609.4000000000001" as="sourcePoint" />
            <mxPoint x="99.53999999999999" y="560" as="targetPoint" />
          </mxGeometry>
        </mxCell>
        <mxCell id="fOuyArTs9ZE_MJs5jXVL-31" value="" style="endArrow=none;html=1;rounded=0;exitX=0.5;exitY=0;exitDx=0;exitDy=0;entryX=0.5;entryY=1;entryDx=0;entryDy=0;" parent="1" source="fOuyArTs9ZE_MJs5jXVL-19" target="fOuyArTs9ZE_MJs5jXVL-1" edge="1">
          <mxGeometry width="50" height="50" relative="1" as="geometry">
            <mxPoint x="369.54" y="660" as="sourcePoint" />
            <mxPoint x="419.54" y="610" as="targetPoint" />
          </mxGeometry>
        </mxCell>
        <mxCell id="fOuyArTs9ZE_MJs5jXVL-32" value="" style="endArrow=none;html=1;rounded=0;exitX=0.5;exitY=0;exitDx=0;exitDy=0;entryX=0.5;entryY=1;entryDx=0;entryDy=0;" parent="1" source="fOuyArTs9ZE_MJs5jXVL-26" target="fOuyArTs9ZE_MJs5jXVL-1" edge="1">
          <mxGeometry width="50" height="50" relative="1" as="geometry">
            <mxPoint x="369.54" y="660" as="sourcePoint" />
            <mxPoint x="419.54" y="610" as="targetPoint" />
          </mxGeometry>
        </mxCell>
        <mxCell id="fOuyArTs9ZE_MJs5jXVL-34" value="" style="endArrow=none;html=1;rounded=0;entryX=0.5;entryY=1;entryDx=0;entryDy=0;exitX=0.5;exitY=0;exitDx=0;exitDy=0;" parent="1" source="fOuyArTs9ZE_MJs5jXVL-24" target="fOuyArTs9ZE_MJs5jXVL-4" edge="1">
          <mxGeometry width="50" height="50" relative="1" as="geometry">
            <mxPoint x="369.54" y="660" as="sourcePoint" />
            <mxPoint x="419.54" y="610" as="targetPoint" />
          </mxGeometry>
        </mxCell>
        <mxCell id="fOuyArTs9ZE_MJs5jXVL-37" value="" style="endArrow=none;html=1;rounded=0;exitX=0.5;exitY=0;exitDx=0;exitDy=0;entryX=0.5;entryY=1;entryDx=0;entryDy=0;" parent="1" source="fOuyArTs9ZE_MJs5jXVL-22" target="fOuyArTs9ZE_MJs5jXVL-4" edge="1">
          <mxGeometry width="50" height="50" relative="1" as="geometry">
            <mxPoint x="369.54" y="660" as="sourcePoint" />
            <mxPoint x="419.54" y="610" as="targetPoint" />
          </mxGeometry>
        </mxCell>
        <mxCell id="fOuyArTs9ZE_MJs5jXVL-38" value="" style="endArrow=none;html=1;rounded=0;exitX=0.5;exitY=0;exitDx=0;exitDy=0;entryX=0.5;entryY=1;entryDx=0;entryDy=0;" parent="1" source="fOuyArTs9ZE_MJs5jXVL-23" target="fOuyArTs9ZE_MJs5jXVL-4" edge="1">
          <mxGeometry width="50" height="50" relative="1" as="geometry">
            <mxPoint x="369.54" y="660" as="sourcePoint" />
            <mxPoint x="419.54" y="610" as="targetPoint" />
          </mxGeometry>
        </mxCell>
        <mxCell id="fOuyArTs9ZE_MJs5jXVL-40" value="postai cím" style="ellipse;whiteSpace=wrap;html=1;fillColor=#ffcccc;strokeColor=#36393d;" parent="1" vertex="1">
          <mxGeometry x="379.54" y="610" width="100" height="50" as="geometry" />
        </mxCell>
        <mxCell id="fOuyArTs9ZE_MJs5jXVL-41" value="" style="endArrow=none;html=1;rounded=0;exitX=0.5;exitY=0;exitDx=0;exitDy=0;entryX=0.5;entryY=1;entryDx=0;entryDy=0;" parent="1" source="fOuyArTs9ZE_MJs5jXVL-40" target="fOuyArTs9ZE_MJs5jXVL-4" edge="1">
          <mxGeometry width="50" height="50" relative="1" as="geometry">
            <mxPoint x="509.54" y="660" as="sourcePoint" />
            <mxPoint x="559.54" y="610" as="targetPoint" />
          </mxGeometry>
        </mxCell>
        <mxCell id="fOuyArTs9ZE_MJs5jXVL-42" value="utca név" style="ellipse;whiteSpace=wrap;html=1;fillColor=#ffcccc;strokeColor=#36393d;" parent="1" vertex="1">
          <mxGeometry x="449.54" y="700" width="100" height="50" as="geometry" />
        </mxCell>
        <mxCell id="fOuyArTs9ZE_MJs5jXVL-43" value="irszám" style="ellipse;whiteSpace=wrap;html=1;fillColor=#ffcccc;strokeColor=#36393d;" parent="1" vertex="1">
          <mxGeometry x="279.54" y="700" width="100" height="50" as="geometry" />
        </mxCell>
        <mxCell id="fOuyArTs9ZE_MJs5jXVL-44" value="" style="endArrow=none;html=1;rounded=0;exitX=0.5;exitY=0;exitDx=0;exitDy=0;entryX=0.5;entryY=1;entryDx=0;entryDy=0;" parent="1" source="fOuyArTs9ZE_MJs5jXVL-43" target="fOuyArTs9ZE_MJs5jXVL-40" edge="1">
          <mxGeometry width="50" height="50" relative="1" as="geometry">
            <mxPoint x="419.54" y="660" as="sourcePoint" />
            <mxPoint x="469.54" y="610" as="targetPoint" />
          </mxGeometry>
        </mxCell>
        <mxCell id="fOuyArTs9ZE_MJs5jXVL-45" value="" style="endArrow=none;html=1;rounded=0;entryX=0.5;entryY=1;entryDx=0;entryDy=0;exitX=0.5;exitY=0;exitDx=0;exitDy=0;" parent="1" source="fOuyArTs9ZE_MJs5jXVL-42" target="fOuyArTs9ZE_MJs5jXVL-40" edge="1">
          <mxGeometry width="50" height="50" relative="1" as="geometry">
            <mxPoint x="469.54" y="850" as="sourcePoint" />
            <mxPoint x="519.54" y="800" as="targetPoint" />
          </mxGeometry>
        </mxCell>
        <mxCell id="fOuyArTs9ZE_MJs5jXVL-46" value="kiszerelés" style="ellipse;whiteSpace=wrap;html=1;fillColor=#ffcccc;strokeColor=#36393d;" parent="1" vertex="1">
          <mxGeometry x="240" y="607" width="70" height="36" as="geometry" />
        </mxCell>
        <mxCell id="fOuyArTs9ZE_MJs5jXVL-47" value="" style="endArrow=none;html=1;rounded=0;exitX=0.5;exitY=0;exitDx=0;exitDy=0;entryX=0.5;entryY=1;entryDx=0;entryDy=0;" parent="1" source="fOuyArTs9ZE_MJs5jXVL-46" target="fOuyArTs9ZE_MJs5jXVL-1" edge="1">
          <mxGeometry width="50" height="50" relative="1" as="geometry">
            <mxPoint x="149.54" y="660" as="sourcePoint" />
            <mxPoint x="199.54" y="610" as="targetPoint" />
          </mxGeometry>
        </mxCell>
        <mxCell id="fOuyArTs9ZE_MJs5jXVL-50" value="Alkatrész" style="rounded=0;whiteSpace=wrap;html=1;fillColor=#f9f7ed;strokeColor=#CBCF9C;" parent="1" vertex="1">
          <mxGeometry x="29.54" y="200" width="150" height="80" as="geometry" />
        </mxCell>
        <mxCell id="fOuyArTs9ZE_MJs5jXVL-51" value="" style="rhombus;whiteSpace=wrap;html=1;fillColor=#ffff88;strokeColor=#36393d;" parent="1" vertex="1">
          <mxGeometry x="64.54000000000002" y="320" width="80" height="80" as="geometry" />
        </mxCell>
        <mxCell id="fOuyArTs9ZE_MJs5jXVL-52" value="" style="endArrow=classic;html=1;rounded=0;exitX=0.5;exitY=0;exitDx=0;exitDy=0;entryX=0.5;entryY=1;entryDx=0;entryDy=0;" parent="1" source="fOuyArTs9ZE_MJs5jXVL-51" target="fOuyArTs9ZE_MJs5jXVL-50" edge="1">
          <mxGeometry width="50" height="50" relative="1" as="geometry">
            <mxPoint x="159.54000000000002" y="360" as="sourcePoint" />
            <mxPoint x="209.54000000000002" y="310" as="targetPoint" />
          </mxGeometry>
        </mxCell>
        <mxCell id="fOuyArTs9ZE_MJs5jXVL-53" value="" style="endArrow=classic;html=1;rounded=0;exitX=0.5;exitY=0;exitDx=0;exitDy=0;" parent="1" source="fOuyArTs9ZE_MJs5jXVL-51" edge="1">
          <mxGeometry width="50" height="50" relative="1" as="geometry">
            <mxPoint x="270" y="530" as="sourcePoint" />
            <mxPoint x="105" y="290" as="targetPoint" />
          </mxGeometry>
        </mxCell>
        <mxCell id="fOuyArTs9ZE_MJs5jXVL-54" value="" style="endArrow=classic;html=1;rounded=0;exitX=0.5;exitY=1;exitDx=0;exitDy=0;entryX=0.5;entryY=0;entryDx=0;entryDy=0;" parent="1" source="fOuyArTs9ZE_MJs5jXVL-51" target="fOuyArTs9ZE_MJs5jXVL-1" edge="1">
          <mxGeometry width="50" height="50" relative="1" as="geometry">
            <mxPoint x="270" y="530" as="sourcePoint" />
            <mxPoint x="320" y="480" as="targetPoint" />
          </mxGeometry>
        </mxCell>
        <mxCell id="fOuyArTs9ZE_MJs5jXVL-55" value="" style="endArrow=classic;html=1;rounded=0;exitX=0.5;exitY=1;exitDx=0;exitDy=0;" parent="1" source="fOuyArTs9ZE_MJs5jXVL-51" edge="1">
          <mxGeometry width="50" height="50" relative="1" as="geometry">
            <mxPoint x="270" y="530" as="sourcePoint" />
            <mxPoint x="105" y="450" as="targetPoint" />
          </mxGeometry>
        </mxCell>
        <mxCell id="fOuyArTs9ZE_MJs5jXVL-56" value="" style="ellipse;whiteSpace=wrap;html=1;fillColor=none;" parent="1" vertex="1">
          <mxGeometry x="229.76999999999998" y="600.5" width="90.46" height="48.5" as="geometry" />
        </mxCell>
        <mxCell id="fOuyArTs9ZE_MJs5jXVL-57" value="&lt;u&gt;akod&lt;/u&gt;" style="ellipse;whiteSpace=wrap;html=1;fillColor=#ffcccc;strokeColor=#36393d;" parent="1" vertex="1">
          <mxGeometry x="229.54000000000002" y="100" width="100" height="50" as="geometry" />
        </mxCell>
        <mxCell id="fOuyArTs9ZE_MJs5jXVL-58" value="kategória" style="ellipse;whiteSpace=wrap;html=1;fillColor=#ffcccc;strokeColor=#36393d;" parent="1" vertex="1">
          <mxGeometry x="10" y="100" width="100" height="50" as="geometry" />
        </mxCell>
        <mxCell id="fOuyArTs9ZE_MJs5jXVL-59" value="" style="endArrow=none;html=1;rounded=0;exitX=0.5;exitY=0;exitDx=0;exitDy=0;entryX=0.5;entryY=1;entryDx=0;entryDy=0;" parent="1" source="fOuyArTs9ZE_MJs5jXVL-50" target="fOuyArTs9ZE_MJs5jXVL-58" edge="1">
          <mxGeometry width="50" height="50" relative="1" as="geometry">
            <mxPoint x="580" y="430" as="sourcePoint" />
            <mxPoint x="630" y="380" as="targetPoint" />
          </mxGeometry>
        </mxCell>
        <mxCell id="fOuyArTs9ZE_MJs5jXVL-60" value="" style="endArrow=none;html=1;rounded=0;exitX=0.5;exitY=0;exitDx=0;exitDy=0;entryX=0.5;entryY=1;entryDx=0;entryDy=0;" parent="1" source="fOuyArTs9ZE_MJs5jXVL-50" target="fOuyArTs9ZE_MJs5jXVL-57" edge="1">
          <mxGeometry width="50" height="50" relative="1" as="geometry">
            <mxPoint x="580" y="430" as="sourcePoint" />
            <mxPoint x="630" y="380" as="targetPoint" />
          </mxGeometry>
        </mxCell>
        <mxCell id="fOuyArTs9ZE_MJs5jXVL-61" value="kategória" style="ellipse;whiteSpace=wrap;html=1;fillColor=#ffcccc;strokeColor=#36393d;" parent="1" vertex="1">
          <mxGeometry x="120" y="100" width="100" height="50" as="geometry" />
        </mxCell>
        <mxCell id="fOuyArTs9ZE_MJs5jXVL-62" value="" style="endArrow=none;html=1;rounded=0;exitX=0.5;exitY=0;exitDx=0;exitDy=0;entryX=0.5;entryY=1;entryDx=0;entryDy=0;" parent="1" source="fOuyArTs9ZE_MJs5jXVL-50" target="fOuyArTs9ZE_MJs5jXVL-61" edge="1">
          <mxGeometry width="50" height="50" relative="1" as="geometry">
            <mxPoint x="580" y="430" as="sourcePoint" />
            <mxPoint x="630" y="380" as="targetPoint" />
          </mxGeometry>
        </mxCell>
        <mxCell id="XkUIuUMJzLolkgC84juh-1" value="Rendelés" style="rounded=0;whiteSpace=wrap;html=1;" vertex="1" parent="1">
          <mxGeometry x="439.54" y="280" width="120" height="60" as="geometry" />
        </mxCell>
        <mxCell id="XkUIuUMJzLolkgC84juh-2" value="Vevő" style="rounded=0;whiteSpace=wrap;html=1;" vertex="1" parent="1">
          <mxGeometry x="439.53999999999996" y="40" width="120" height="60" as="geometry" />
        </mxCell>
        <mxCell id="XkUIuUMJzLolkgC84juh-4" value="" style="rhombus;whiteSpace=wrap;html=1;fillColor=#ffff88;strokeColor=#36393d;" vertex="1" parent="1">
          <mxGeometry x="260" y="350" width="80" height="80" as="geometry" />
        </mxCell>
        <mxCell id="XkUIuUMJzLolkgC84juh-5" value="" style="rhombus;whiteSpace=wrap;html=1;fillColor=#ffff88;strokeColor=#36393d;" vertex="1" parent="1">
          <mxGeometry x="459.54" y="140" width="80" height="80" as="geometry" />
        </mxCell>
        <mxCell id="XkUIuUMJzLolkgC84juh-6" value="" style="endArrow=classic;html=1;rounded=0;fontSize=12;startSize=8;endSize=8;curved=1;exitX=0.5;exitY=0;exitDx=0;exitDy=0;entryX=0.5;entryY=1;entryDx=0;entryDy=0;" edge="1" parent="1" source="XkUIuUMJzLolkgC84juh-4" target="XkUIuUMJzLolkgC84juh-1">
          <mxGeometry width="50" height="50" relative="1" as="geometry">
            <mxPoint x="540" y="450" as="sourcePoint" />
            <mxPoint x="600" y="400" as="targetPoint" />
          </mxGeometry>
        </mxCell>
        <mxCell id="XkUIuUMJzLolkgC84juh-7" value="" style="endArrow=classic;html=1;rounded=0;fontSize=12;startSize=8;endSize=8;curved=1;exitX=0.5;exitY=1;exitDx=0;exitDy=0;entryX=0.63;entryY=0.013;entryDx=0;entryDy=0;entryPerimeter=0;" edge="1" parent="1" source="XkUIuUMJzLolkgC84juh-4" target="fOuyArTs9ZE_MJs5jXVL-1">
          <mxGeometry width="50" height="50" relative="1" as="geometry">
            <mxPoint x="550" y="450" as="sourcePoint" />
            <mxPoint x="600" y="400" as="targetPoint" />
          </mxGeometry>
        </mxCell>
        <mxCell id="XkUIuUMJzLolkgC84juh-8" value="" style="endArrow=classic;html=1;rounded=0;fontSize=12;startSize=8;endSize=8;curved=1;exitX=0.5;exitY=1;exitDx=0;exitDy=0;" edge="1" parent="1" source="XkUIuUMJzLolkgC84juh-4">
          <mxGeometry width="50" height="50" relative="1" as="geometry">
            <mxPoint x="260" y="420" as="sourcePoint" />
            <mxPoint x="140" y="460" as="targetPoint" />
          </mxGeometry>
        </mxCell>
        <mxCell id="XkUIuUMJzLolkgC84juh-9" value="" style="endArrow=classic;html=1;rounded=0;fontSize=12;startSize=8;endSize=8;curved=1;exitX=0.5;exitY=0;exitDx=0;exitDy=0;entryX=0.25;entryY=1;entryDx=0;entryDy=0;" edge="1" parent="1" source="XkUIuUMJzLolkgC84juh-4" target="XkUIuUMJzLolkgC84juh-1">
          <mxGeometry width="50" height="50" relative="1" as="geometry">
            <mxPoint x="270" y="350" as="sourcePoint" />
            <mxPoint x="390" y="300" as="targetPoint" />
          </mxGeometry>
        </mxCell>
        <mxCell id="XkUIuUMJzLolkgC84juh-10" value="" style="endArrow=classic;html=1;rounded=0;fontSize=12;startSize=8;endSize=8;curved=1;entryX=0.5;entryY=0;entryDx=0;entryDy=0;" edge="1" parent="1" source="XkUIuUMJzLolkgC84juh-5" target="XkUIuUMJzLolkgC84juh-1">
          <mxGeometry width="50" height="50" relative="1" as="geometry">
            <mxPoint x="550" y="450" as="sourcePoint" />
            <mxPoint x="600" y="400" as="targetPoint" />
          </mxGeometry>
        </mxCell>
        <mxCell id="XkUIuUMJzLolkgC84juh-11" value="" style="endArrow=classic;html=1;rounded=0;fontSize=12;startSize=8;endSize=8;curved=1;exitX=0.5;exitY=1;exitDx=0;exitDy=0;" edge="1" parent="1" source="XkUIuUMJzLolkgC84juh-5">
          <mxGeometry width="50" height="50" relative="1" as="geometry">
            <mxPoint x="550" y="450" as="sourcePoint" />
            <mxPoint x="500" y="270" as="targetPoint" />
          </mxGeometry>
        </mxCell>
        <mxCell id="XkUIuUMJzLolkgC84juh-12" value="" style="endArrow=classic;html=1;rounded=0;fontSize=12;startSize=8;endSize=8;curved=1;exitX=0.5;exitY=0;exitDx=0;exitDy=0;entryX=0.5;entryY=1;entryDx=0;entryDy=0;" edge="1" parent="1" source="XkUIuUMJzLolkgC84juh-5" target="XkUIuUMJzLolkgC84juh-2">
          <mxGeometry width="50" height="50" relative="1" as="geometry">
            <mxPoint x="550" y="450" as="sourcePoint" />
            <mxPoint x="600" y="400" as="targetPoint" />
          </mxGeometry>
        </mxCell>
        <mxCell id="XkUIuUMJzLolkgC84juh-13" value="dátum" style="ellipse;whiteSpace=wrap;html=1;fillColor=#ffcccc;strokeColor=#36393d;" vertex="1" parent="1">
          <mxGeometry x="320.23" y="180" width="70" height="36" as="geometry" />
        </mxCell>
        <mxCell id="XkUIuUMJzLolkgC84juh-14" value="darabszám" style="ellipse;whiteSpace=wrap;html=1;fillColor=#ffcccc;strokeColor=#36393d;" vertex="1" parent="1">
          <mxGeometry x="320.23" y="236" width="70" height="36" as="geometry" />
        </mxCell>
        <mxCell id="XkUIuUMJzLolkgC84juh-15" value="ár" style="ellipse;whiteSpace=wrap;html=1;fillColor=#ffcccc;strokeColor=#36393d;dashed=1;dashPattern=8 8;" vertex="1" parent="1">
          <mxGeometry x="320.23" y="292" width="70" height="36" as="geometry" />
        </mxCell>
        <mxCell id="XkUIuUMJzLolkgC84juh-17" value="" style="endArrow=none;html=1;rounded=0;fontSize=12;startSize=8;endSize=8;curved=1;entryX=0;entryY=0.5;entryDx=0;entryDy=0;exitX=1;exitY=0.5;exitDx=0;exitDy=0;" edge="1" parent="1" source="XkUIuUMJzLolkgC84juh-15" target="XkUIuUMJzLolkgC84juh-1">
          <mxGeometry width="50" height="50" relative="1" as="geometry">
            <mxPoint x="340" y="350" as="sourcePoint" />
            <mxPoint x="390" y="300" as="targetPoint" />
          </mxGeometry>
        </mxCell>
        <mxCell id="XkUIuUMJzLolkgC84juh-18" value="" style="endArrow=none;html=1;rounded=0;fontSize=12;startSize=8;endSize=8;curved=1;entryX=1;entryY=0.5;entryDx=0;entryDy=0;exitX=0;exitY=0.5;exitDx=0;exitDy=0;" edge="1" parent="1" source="XkUIuUMJzLolkgC84juh-1" target="XkUIuUMJzLolkgC84juh-14">
          <mxGeometry width="50" height="50" relative="1" as="geometry">
            <mxPoint x="340" y="350" as="sourcePoint" />
            <mxPoint x="390" y="300" as="targetPoint" />
          </mxGeometry>
        </mxCell>
        <mxCell id="XkUIuUMJzLolkgC84juh-19" value="" style="endArrow=none;html=1;rounded=0;fontSize=12;startSize=8;endSize=8;curved=1;entryX=0.968;entryY=0.778;entryDx=0;entryDy=0;entryPerimeter=0;exitX=0;exitY=0.5;exitDx=0;exitDy=0;" edge="1" parent="1" source="XkUIuUMJzLolkgC84juh-1" target="XkUIuUMJzLolkgC84juh-13">
          <mxGeometry width="50" height="50" relative="1" as="geometry">
            <mxPoint x="340" y="350" as="sourcePoint" />
            <mxPoint x="390" y="300" as="targetPoint" />
          </mxGeometry>
        </mxCell>
        <mxCell id="XkUIuUMJzLolkgC84juh-21" value="" style="endArrow=none;html=1;rounded=0;fontSize=12;startSize=8;endSize=8;curved=1;entryX=0;entryY=0.5;entryDx=0;entryDy=0;exitX=1;exitY=0.5;exitDx=0;exitDy=0;" edge="1" parent="1" source="XkUIuUMJzLolkgC84juh-1" target="XkUIuUMJzLolkgC84juh-23">
          <mxGeometry width="50" height="50" relative="1" as="geometry">
            <mxPoint x="340" y="450" as="sourcePoint" />
            <mxPoint x="410" y="400" as="targetPoint" />
          </mxGeometry>
        </mxCell>
        <mxCell id="XkUIuUMJzLolkgC84juh-23" value="vevő" style="ellipse;whiteSpace=wrap;html=1;fillColor=#ffcccc;strokeColor=#36393d;" vertex="1" parent="1">
          <mxGeometry x="609.54" y="292" width="70" height="36" as="geometry" />
        </mxCell>
        <mxCell id="XkUIuUMJzLolkgC84juh-24" value="tKód" style="ellipse;whiteSpace=wrap;html=1;fillColor=#ffcccc;strokeColor=#36393d;" vertex="1" parent="1">
          <mxGeometry x="619.54" y="190" width="70" height="36" as="geometry" />
        </mxCell>
        <mxCell id="XkUIuUMJzLolkgC84juh-25" value="" style="endArrow=none;html=1;rounded=0;fontSize=12;startSize=8;endSize=8;curved=1;entryX=0.035;entryY=0.722;entryDx=0;entryDy=0;exitX=1;exitY=0.5;exitDx=0;exitDy=0;entryPerimeter=0;" edge="1" parent="1" source="XkUIuUMJzLolkgC84juh-1" target="XkUIuUMJzLolkgC84juh-24">
          <mxGeometry width="50" height="50" relative="1" as="geometry">
            <mxPoint x="570" y="320" as="sourcePoint" />
            <mxPoint x="620" y="320" as="targetPoint" />
          </mxGeometry>
        </mxCell>
        <mxCell id="XkUIuUMJzLolkgC84juh-27" value="rKód" style="ellipse;whiteSpace=wrap;html=1;fillColor=#ffcccc;strokeColor=#36393d;" vertex="1" parent="1">
          <mxGeometry x="320.23" y="4" width="70" height="36" as="geometry" />
        </mxCell>
        <mxCell id="XkUIuUMJzLolkgC84juh-28" value="&lt;u&gt;vKód&lt;/u&gt;" style="ellipse;whiteSpace=wrap;html=1;fillColor=#ffcccc;strokeColor=#36393d;" vertex="1" parent="1">
          <mxGeometry x="640" y="80" width="70" height="36" as="geometry" />
        </mxCell>
        <mxCell id="XkUIuUMJzLolkgC84juh-29" value="" style="endArrow=none;html=1;rounded=0;fontSize=12;startSize=8;endSize=8;curved=1;exitX=1;exitY=0.5;exitDx=0;exitDy=0;entryX=0;entryY=0.5;entryDx=0;entryDy=0;" edge="1" parent="1" source="XkUIuUMJzLolkgC84juh-2" target="XkUIuUMJzLolkgC84juh-28">
          <mxGeometry width="50" height="50" relative="1" as="geometry">
            <mxPoint x="550" y="250" as="sourcePoint" />
            <mxPoint x="600" y="200" as="targetPoint" />
          </mxGeometry>
        </mxCell>
        <mxCell id="XkUIuUMJzLolkgC84juh-30" value="" style="endArrow=none;html=1;rounded=0;fontSize=12;startSize=8;endSize=8;curved=1;exitX=1;exitY=0.5;exitDx=0;exitDy=0;entryX=0;entryY=0.5;entryDx=0;entryDy=0;" edge="1" parent="1" source="XkUIuUMJzLolkgC84juh-27" target="XkUIuUMJzLolkgC84juh-2">
          <mxGeometry width="50" height="50" relative="1" as="geometry">
            <mxPoint x="550" y="250" as="sourcePoint" />
            <mxPoint x="600" y="200" as="targetPoint" />
          </mxGeometry>
        </mxCell>
        <mxCell id="XkUIuUMJzLolkgC84juh-33" value="száml_cím" style="ellipse;whiteSpace=wrap;html=1;fillColor=#ffcccc;strokeColor=#36393d;" vertex="1" parent="1">
          <mxGeometry x="310" y="60" width="70" height="36" as="geometry" />
        </mxCell>
        <mxCell id="XkUIuUMJzLolkgC84juh-34" value="szállítási_cím" style="ellipse;whiteSpace=wrap;html=1;fillColor=#ffcccc;strokeColor=#36393d;" vertex="1" parent="1">
          <mxGeometry x="650" y="16" width="90" height="44" as="geometry" />
        </mxCell>
        <mxCell id="XkUIuUMJzLolkgC84juh-35" value="" style="endArrow=none;html=1;rounded=0;fontSize=12;startSize=8;endSize=8;curved=1;exitX=1;exitY=0.5;exitDx=0;exitDy=0;entryX=0;entryY=0.5;entryDx=0;entryDy=0;" edge="1" parent="1" source="XkUIuUMJzLolkgC84juh-33" target="XkUIuUMJzLolkgC84juh-2">
          <mxGeometry width="50" height="50" relative="1" as="geometry">
            <mxPoint x="550" y="350" as="sourcePoint" />
            <mxPoint x="600" y="300" as="targetPoint" />
          </mxGeometry>
        </mxCell>
        <mxCell id="XkUIuUMJzLolkgC84juh-36" value="" style="endArrow=none;html=1;rounded=0;fontSize=12;startSize=8;endSize=8;curved=1;exitX=1;exitY=0.5;exitDx=0;exitDy=0;entryX=0;entryY=0.5;entryDx=0;entryDy=0;" edge="1" parent="1" source="XkUIuUMJzLolkgC84juh-2" target="XkUIuUMJzLolkgC84juh-34">
          <mxGeometry width="50" height="50" relative="1" as="geometry">
            <mxPoint x="550" y="350" as="sourcePoint" />
            <mxPoint x="600" y="300" as="targetPoint" />
          </mxGeometry>
        </mxCell>
      </root>
    </mxGraphModel>
  </diagram>
</mxfile>
